<svg width="128" height="128" viewBox="0 0 128 128" fill="none" xmlns="http://www.w3.org/2000/svg">
<path fill-rule="evenodd" clip-rule="evenodd" d="M115.436 55.3289C113.772 60.0573 111.067 64.3513 107.52 67.8933C101.867 73.4933 94.72 76.6933 87.4133 77.4933C80 78.2933 73.1733 81.12 68 86.2933C65.2057 89.0857 61.417 90.6543 57.4666 90.6543C53.5163 90.6543 49.7276 89.0857 46.9333 86.2933L41.6533 81.0133C35.84 75.2533 35.84 65.8133 42.0266 59.6266L42.1866 59.4666C47.0933 54.5599 49.76 48 50.4533 40.96C51.36 31.2533 56.5333 21.8666 65.92 15.84C76.7466 8.85328 91.0933 8.90662 101.813 16C106.045 18.6865 109.619 22.29 112.27 26.544C114.921 30.7979 116.582 35.5935 117.13 40.576C117.678 45.5585 117.099 50.6004 115.436 55.3289ZM31.84 114.987C34.3466 112.533 34.8266 108.907 33.3866 105.92L46.72 92.8533C45.3333 92.0533 44.2666 91.1466 43.1466 90.0799L37.8666 84.7999C36.9456 83.8789 36.1228 82.7615 35.3981 81.7775L35.3066 81.6533L22.08 94.6133C19.1466 93.1733 15.4666 93.7066 13.0133 96.16C11.9113 97.2456 11.1501 98.6293 10.8231 100.141C10.4961 101.653 10.6175 103.228 11.1725 104.672C11.7274 106.116 12.6918 107.366 13.9472 108.27C15.2026 109.174 16.6945 109.692 18.24 109.76C18.3082 111.305 18.8259 112.797 19.7298 114.053C20.6336 115.308 21.8842 116.273 23.3282 116.827C24.7722 117.382 26.3467 117.504 27.8587 117.177C29.3707 116.85 30.7543 116.089 31.84 114.987ZM89.3333 38.6666H97.3333C98.3942 38.6666 99.4116 39.088 100.162 39.8382C100.912 40.5883 101.333 41.6058 101.333 42.6666C101.333 43.7275 100.912 44.7449 100.162 45.495C99.4116 46.2452 98.3942 46.6666 97.3333 46.6666L89.3333 46.5246V54.6666C89.3333 55.7275 88.9119 56.7449 88.1617 57.495C87.4116 58.2452 86.3942 58.6666 85.3333 58.6666C84.2724 58.6666 83.255 58.2452 82.5049 57.495C81.7547 56.7449 81.3333 55.7275 81.3333 54.6666L81.4753 46.5246L73.3333 46.6666C72.2724 46.6666 71.255 46.2452 70.5049 45.495C69.7547 44.7449 69.3333 43.7275 69.3333 42.6666C69.3333 41.6058 69.7547 40.5883 70.5049 39.8382C71.255 39.088 72.2724 38.6666 73.3333 38.6666H81.4753L81.3333 30.6666C81.3333 29.6058 81.7547 28.5883 82.5049 27.8382C83.255 27.088 84.2724 26.6666 85.3333 26.6666C86.3942 26.6666 87.4116 27.088 88.1617 27.8382C88.9119 28.5883 89.3333 29.6058 89.3333 30.6666V38.6666Z" fill="black"/>
</svg>
