<?xml version="1.0" standalone="no"?>
<!DOCTYPE svg PUBLIC "-//W3C//DTD SVG 20010904//EN"
 "http://www.w3.org/TR/2001/REC-SVG-20010904/DTD/svg10.dtd">
<svg version="1.0" xmlns="http://www.w3.org/2000/svg"
 width="256.000000pt" height="256.000000pt" viewBox="0 0 256.000000 256.000000"
 preserveAspectRatio="xMidYMid meet">

<g transform="translate(0.000000,256.000000) scale(0.100000,-0.100000)"
fill="#000000" stroke="none">
<path d="M610 2535 c-218 -61 -428 -246 -535 -471 -103 -218 -86 -472 50 -759
42 -88 138 -241 175 -279 18 -18 19 -18 49 3 l30 22 -48 67 c-109 152 -177
294 -217 451 -22 82 -25 113 -21 211 5 174 55 294 184 442 205 238 489 313
710 186 51 -29 157 -115 218 -177 66 -68 85 -67 155 5 86 87 171 151 256 191
77 37 82 38 189 37 95 0 119 -4 178 -27 219 -86 416 -306 473 -529 26 -99 15
-275 -25 -398 -54 -169 -169 -367 -303 -521 -26 -30 -48 -60 -48 -66 0 -13 48
-46 59 -41 14 5 134 157 189 238 28 42 73 121 101 175 88 176 121 302 121 465
0 173 -48 307 -170 468 -153 203 -368 322 -580 322 -96 -1 -147 -13 -231 -55
-82 -41 -129 -75 -215 -154 -37 -33 -72 -61 -78 -61 -6 0 -36 25 -66 56 -63
64 -190 150 -270 184 -72 30 -247 38 -330 15z"/>
<path d="M773 2238 c-32 -36 -223 -309 -223 -320 0 -15 100 -117 122 -124 14
-4 41 8 89 40 55 37 77 46 112 46 24 0 48 -5 55 -12 9 -9 12 -76 12 -240 l0
-227 -91 -45 c-332 -166 -510 -446 -509 -803 1 -59 5 -128 10 -153 4 -25 7
-46 5 -48 -5 -5 -67 28 -87 46 -14 12 -18 31 -18 94 0 95 -17 140 -62 168 -43
26 -77 25 -119 -3 -56 -38 -64 -64 -67 -240 -3 -141 -1 -161 14 -179 22 -24
235 -159 322 -205 l63 -33 945 0 945 0 105 49 c100 48 106 52 127 98 18 40 22
66 22 153 0 99 -2 110 -33 172 -39 79 -90 128 -182 172 l-65 31 -249 5 c-187
4 -250 8 -254 18 -2 6 0 12 5 12 5 0 31 14 56 31 l47 31 69 -16 c94 -22 98
-21 106 15 8 36 1 43 -60 60 -55 15 -56 15 -39 54 8 19 14 59 14 88 l0 54 45
17 c25 10 47 22 50 26 3 5 -1 25 -9 44 l-15 35 -35 -14 c-36 -15 -36 -15 -36
9 0 23 -102 207 -138 249 -24 28 -40 21 -111 -48 -37 -36 -73 -65 -79 -65 -9
0 -12 70 -12 268 l0 268 33 32 c18 18 43 32 55 32 12 0 53 -21 91 -46 48 -31
75 -44 89 -40 18 6 100 119 115 158 4 12 -22 61 -85 155 -50 76 -96 141 -102
146 -6 4 -49 6 -96 5 l-85 -3 -43 -82 -43 -83 -228 0 -227 0 -30 62 c-52 109
-50 108 -168 108 -94 0 -104 -2 -123 -22z m225 -145 l43 -83 279 0 279 0 18
23 c10 13 31 51 47 85 28 59 31 62 66 62 36 0 39 -3 110 -110 l72 -109 -22
-31 c-12 -16 -24 -30 -28 -30 -4 0 -27 14 -52 30 -37 25 -55 30 -105 30 -58 0
-60 -1 -112 -52 l-53 -52 0 -288 0 -288 -58 0 c-57 0 -58 1 -112 56 -63 64
-82 76 -104 68 -22 -8 -156 -234 -156 -262 0 -22 -1 -22 -35 -8 l-35 15 -15
-36 c-8 -19 -13 -38 -10 -43 2 -4 25 -15 50 -24 l45 -18 0 -51 c0 -34 9 -70
24 -104 l24 -52 -74 -27 c-41 -15 -74 -28 -74 -31 0 -12 30 -73 36 -73 5 0 45
14 90 31 l82 31 76 -37 76 -36 0 -125 0 -124 -130 0 -130 0 0 -45 0 -45 130 0
130 0 0 -125 0 -125 -44 0 c-39 0 -44 3 -49 28 -8 39 -47 93 -84 114 -18 11
-61 22 -101 25 l-70 6 -4 48 c-7 73 -59 169 -123 228 -64 57 -139 89 -232 98
l-63 6 0 -47 0 -46 48 0 c70 0 135 -26 191 -76 59 -53 90 -120 98 -212 3 -37
10 -73 16 -79 6 -9 39 -13 99 -13 81 0 91 -2 113 -25 14 -13 25 -31 25 -40 0
-13 -46 -15 -400 -15 l-400 0 -150 93 -149 92 -1 152 c0 135 2 153 18 161 19
10 43 5 54 -12 4 -6 8 -54 8 -106 0 -52 4 -100 8 -107 4 -6 61 -43 126 -82
109 -65 121 -70 140 -57 25 17 25 39 0 126 -30 101 -27 329 4 430 48 153 141
290 265 390 34 28 117 78 185 111 l122 61 0 276 0 276 -32 33 c-31 32 -34 33
-113 33 -76 0 -83 -2 -133 -36 -43 -28 -56 -33 -68 -23 -8 6 -14 16 -14 21 0
5 39 66 87 134 l87 125 61 -3 60 -3 43 -82z m342 -848 l44 -45 151 0 151 0 44
45 c24 25 47 45 51 45 14 0 99 -157 99 -182 0 -22 -9 -29 -70 -54 -73 -30 -78
-36 -58 -79 13 -30 20 -30 77 -5 53 25 51 25 51 -3 0 -26 -34 -93 -47 -91 -4
1 -22 5 -40 8 -29 7 -32 5 -43 -30 -10 -30 -10 -38 1 -45 10 -6 3 -12 -23 -24
-21 -8 -46 -15 -56 -15 -10 0 -27 -9 -37 -20 -16 -18 -17 -23 -5 -46 8 -14 33
-43 57 -65 l43 -39 244 0 c282 0 322 -8 404 -84 83 -76 112 -188 81 -310 -10
-40 -14 -44 -95 -84 l-84 -42 -185 0 -185 0 -12 28 c-6 15 -13 62 -16 104 -4
73 -3 79 27 122 23 33 39 46 56 46 28 0 41 -30 26 -59 -33 -60 -32 -69 5 -111
l36 -40 114 0 114 0 0 45 0 45 -101 0 c-92 0 -101 2 -94 17 30 75 9 150 -50
177 -70 34 -125 8 -185 -86 -37 -56 -40 -67 -40 -128 0 -37 7 -86 15 -109 18
-51 14 -53 -76 -49 l-64 3 -3 147 -3 148 -39 0 -39 0 -3 -147 -3 -148 -62 -3
-63 -3 0 330 c0 286 -2 332 -16 345 -8 9 -24 16 -34 16 -10 0 -31 5 -47 11
l-28 11 25 9 c13 6 26 11 27 13 4 4 -26 76 -32 76 -2 0 -23 -7 -45 -16 -22 -9
-47 -14 -55 -11 -18 7 -55 79 -55 107 0 24 -2 24 51 0 59 -26 63 -26 82 15
l17 35 -38 16 c-20 8 -54 22 -74 31 -29 12 -38 21 -38 40 0 24 86 183 99 183
4 0 27 -20 51 -45z"/>
<path d="M1110 1790 l0 -40 40 0 40 0 0 40 0 40 -40 0 -40 0 0 -40z"/>
<path d="M1370 1790 l0 -40 40 0 40 0 0 40 0 40 -40 0 -40 0 0 -40z"/>
<path d="M1190 1620 l0 -40 90 0 90 0 0 40 0 40 -90 0 -90 0 0 -40z"/>
<path d="M1370 1065 l0 -45 40 0 40 0 0 45 0 45 -40 0 -40 0 0 -45z"/>
<path d="M1622 1068 c3 -43 3 -43 43 -43 40 0 40 0 43 43 l3 42 -46 0 -46 0 3
-42z"/>
<path d="M1490 940 l0 -40 45 0 45 0 0 40 0 40 -45 0 -45 0 0 -40z"/>
</g>
</svg>
