<svg width="144" height="128" viewBox="0 0 144 128" fill="none" xmlns="http://www.w3.org/2000/svg">
<path d="M53.2221 48.3201C59.9325 47.3063 64.9091 41.874 65.6666 35.3844C66.4355 28.7847 68.1693 2.26314 56.969 3.95018C27.9155 8.33033 29.9546 51.8273 53.2221 48.3201ZM91.4483 48.3201C114.71 51.8273 116.749 8.33033 87.6957 3.94762C76.4982 2.26058 78.2291 28.7822 78.9952 35.3819C79.7555 41.874 84.7379 47.3063 91.4483 48.3201ZM41.2874 68.8129C41.2874 65.362 39.9021 62.2337 37.6701 59.9578C33.9981 55.6929 22.3254 47.0683 19.4598 49.2775C13.4781 53.9009 13.671 65.2801 17.2739 73.5489C19.1258 78.1466 23.5984 81.3799 28.8256 81.3799C35.7059 81.3799 41.2874 75.753 41.2874 68.8129ZM125.202 49.2775C122.342 47.0683 110.669 55.6929 106.997 59.9578C104.765 62.2337 103.377 65.362 103.377 68.8129C103.377 75.753 108.964 81.3799 115.839 81.3799C121.069 81.3799 125.545 78.1466 127.396 73.5489C130.991 65.2801 131.189 53.9009 125.202 49.2775ZM101.77 88.3867C91.1834 83.6942 91.5117 74.6574 89.104 66.4116C87.1888 59.835 80.4064 54.971 72.3338 54.971C68.5893 54.9621 64.9426 56.0333 61.9415 58.0238C58.9404 60.0142 56.7468 62.8165 55.6902 66.0097C53.1126 73.8996 54.665 83.0849 43.1248 88.3252C33.7504 91.0414 29.9546 95.0042 29.9546 104.376C29.9546 111.99 37.3072 120.141 46.7968 121.155C57.3837 122.573 65.6435 120.719 72.3338 117.33C79.024 120.719 87.2781 122.57 97.8822 121.155C107.366 120.141 114.722 112.021 114.722 104.376C114.719 94.7994 111.165 91.2308 101.77 88.3867ZM89.2797 99.8401H78.304L78.3184 110.08H66.3491L66.3664 99.8401H54.7197V89.6001H66.3693L66.352 79.3601H78.3213L78.3069 89.6001H89.2797V99.8401Z" fill="black"/>
</svg>
