<svg width="128" height="129" viewBox="0 0 128 129" fill="none" xmlns="http://www.w3.org/2000/svg">
<path fill-rule="evenodd" clip-rule="evenodd" d="M29.0037 17.849C31.0326 16.1941 34.0189 16.4972 35.6738 18.5261L64.0002 53.2539L92.3265 18.5261C93.9814 16.4972 96.9678 16.1941 98.9967 17.849C101.026 19.5039 101.329 22.4902 99.6738 24.5191L70.118 60.7543L80.1092 73.0033C83.2796 71.1285 86.921 70.1152 90.6668 70.1152C96.1676 70.1152 101.443 72.3004 105.333 76.19C109.222 80.0797 111.408 85.3552 111.408 90.856C111.408 96.3567 109.222 101.632 105.333 105.522C101.443 109.412 96.1676 111.597 90.6668 111.597C85.1661 111.597 79.8906 109.412 76.0009 105.522C72.1113 101.632 69.9261 96.3567 69.9261 90.856C69.9261 86.8297 71.0968 82.9241 73.2497 79.5944L64.0002 68.2546L54.7506 79.5944C55.4299 80.645 56.0144 81.7574 56.4955 82.9188C57.5378 85.4352 58.0743 88.1322 58.0743 90.856C58.0743 93.5797 57.5378 96.2767 56.4955 98.7931C55.4531 101.309 53.9254 103.596 51.9994 105.522C50.0735 107.448 47.787 108.976 45.2707 110.018C42.7543 111.06 40.0572 111.597 37.3335 111.597C34.6098 111.597 31.9128 111.06 29.3964 110.018C26.88 108.976 24.5936 107.448 22.6676 105.522C20.7416 103.596 19.2139 101.309 18.1716 98.7931C17.1293 96.2767 16.5928 93.5797 16.5928 90.856C16.5928 88.1322 17.1293 85.4352 18.1716 82.9188C19.2139 80.4024 20.7416 78.116 22.6676 76.19C24.5936 74.2641 26.88 72.7363 29.3964 71.694C31.9128 70.6517 34.6098 70.1152 37.3335 70.1152C40.0572 70.1152 42.7543 70.6517 45.2707 71.694C46.1759 72.069 47.0515 72.5068 47.8912 73.0034L57.8824 60.7543L28.3265 24.5191C26.6716 22.4902 26.9748 19.5039 29.0037 17.849ZM37.3335 79.5967C35.8549 79.5967 34.3908 79.8879 33.0248 80.4538C31.6587 81.0196 30.4175 81.8489 29.372 82.8945C28.3265 83.94 27.4971 85.1812 26.9313 86.5472C26.3655 87.9133 26.0743 89.3774 26.0743 90.856C26.0743 92.3345 26.3655 93.7986 26.9313 95.1647C27.4971 96.5307 28.3265 97.7719 29.372 98.8174C30.4175 99.863 31.6587 100.692 33.0248 101.258C34.3908 101.824 35.8549 102.115 37.3335 102.115C38.8121 102.115 40.2762 101.824 41.6422 101.258C43.0083 100.692 44.2495 99.863 45.295 98.8174C46.3405 97.7719 47.1699 96.5307 47.7357 95.1647C48.3015 93.7987 48.5928 92.3345 48.5928 90.856C48.5928 89.3774 48.3015 87.9133 47.7357 86.5472C47.1699 85.1812 46.3405 83.94 45.295 82.8945C44.2495 81.8489 43.0083 81.0196 41.6422 80.4538C40.2762 79.8879 38.8121 79.5967 37.3335 79.5967ZM90.6668 79.5967C87.6807 79.5967 84.8169 80.7829 82.7053 82.8945C80.5938 85.006 79.4076 87.8698 79.4076 90.856C79.4076 93.8421 80.5938 96.7059 82.7053 98.8174C84.8169 100.929 87.6807 102.115 90.6668 102.115C93.653 102.115 96.5168 100.929 98.6283 98.8174C100.74 96.7059 101.926 93.8421 101.926 90.856C101.926 87.8698 100.74 85.006 98.6283 82.8945C96.5168 80.7829 93.653 79.5967 90.6668 79.5967Z" fill="black"/>
</svg>
