<svg width="128" height="128" viewBox="0 0 128 128" fill="none" xmlns="http://www.w3.org/2000/svg">
<path d="M82.1245 8.21484L79.3245 8.82984L73.1745 36.5748L57.6495 24.4248C57.2745 25.0248 56.9995 25.5748 56.8995 26.1248C56.6745 27.0498 56.7745 28.0248 57.4745 29.3748L72.0245 41.2748L68.7995 64.6498L68.1995 65.1998C53.8245 78.5748 35.5745 90.9248 18.5695 103.45C20.997 104.05 23.252 105.175 24.8745 107.025C26.6245 108.975 27.3495 111.6 27.3995 114.2C56.6745 88.3248 93.9495 55.8748 118.25 28.5498C118.8 26.4248 118.475 25.8248 117.925 25.1998C117.575 24.7673 116.825 24.2923 116 23.7423C106.8 32.9248 90.6995 49.2248 79.1995 57.3498L74.9745 60.3498L82.1245 8.21484ZM73.0995 93.7248C66.7495 95.4248 60.5995 96.0498 54.4745 96.2498C52.7495 97.7748 51.0495 99.2998 49.3495 100.825C53.6495 100.825 57.9995 100.7 62.4495 100.225C65.3995 105.975 70.9245 109.3 75.6995 112.6L78.2495 108.9C73.8995 105.9 69.7745 103.25 67.2995 99.5748C69.5745 99.1998 71.8995 98.6998 74.2495 98.0748L73.0995 93.7248ZM14.467 107.475C12.357 107.525 10.557 108.225 9.75202 109.2C9.41452 109.625 9.31952 110.45 9.77702 111.775C10.2345 113.125 11.2245 114.675 12.1045 115.625C13.2995 116.925 15.212 118.4 16.997 119.175C18.7795 119.925 20.147 119.975 21.0195 119.4C21.937 118.8 22.7645 117.1 22.8795 115.1C22.9945 113.075 22.352 110.975 21.5095 110.025C20.407 108.775 17.8845 107.675 15.3895 107.5C15.077 107.475 14.7695 107.475 14.4695 107.475H14.467Z" fill="black"/>
</svg>
